<?xml version="1.0" encoding="utf-8"?>
<!DOCTYPE svg PUBLIC "-//W3C//DTD SVG 1.0//EN" "http://www.w3.org/TR/2001/REC-SVG-20010904/DTD/svg10.dtd">
<svg version="1.0" xmlns="http://www.w3.org/2000/svg" width="395px" height="273px" viewBox="0 0 395 273" preserveAspectRatio="xMidYMid meet">
 <g fill="#000000">
  <path d="M180.88 242.29 c-1.65 -0.63 -22.47 -8.29 -54.12 -19.94 -16.30 -5.98 -45.51 -16.68 -51.43 -18.83 l-5.86 -2.12 -0.09 -27.22 c-0.06 -21.55 0.03 -27.28 0.32 -27.54 0.22 -0.16 3.48 -1.39 7.22 -2.75 11.74 -4.27 22.31 -8.17 22.73 -8.39 0.22 -0.13 -5.95 -2.53 -13.93 -5.41 -7.88 -2.85 -15.10 -5.51 -15.98 -5.89 l-1.68 -0.73 0 -9.94 c0 -7.60 0.09 -10.03 0.38 -10.25 0.22 -0.19 8.17 -3.13 17.66 -6.58 9.50 -3.42 25.67 -9.31 35.92 -13.04 10.29 -3.77 20.95 -7.63 23.74 -8.64 7.63 -2.75 57 -20.70 61.85 -22.50 6.58 -2.41 -2.53 -5.19 66.66 20.45 25.76 9.56 48.08 17.88 51.37 19.18 l3.23 1.30 0 10.10 0 10.06 -1.01 0.54 c-0.54 0.28 -7.72 2.98 -15.95 5.95 l-14.94 5.44 2.44 0.82 c2.15 0.73 25.16 9.15 27.35 10.03 l0.85 0.35 0 27.35 c0 25.76 -0.03 27.35 -0.54 27.50 -0.32 0.09 -3.13 1.11 -6.27 2.28 -11.17 4.15 -21.90 8.04 -74.70 27.25 -29.40 10.70 -55.04 20 -56.91 20.70 -3.96 1.46 -5.48 1.55 -8.29 0.47z m24.37 -90.24 c25.13 -9.08 25.51 -9.21 71.37 -25.89 23.23 -8.45 43.17 -15.70 44.31 -16.11 l2.06 -0.79 0.09 -4.34 c0.06 -4.05 0.03 -4.34 -0.47 -4.21 -0.32 0.09 -6.27 2.25 -13.23 4.78 -6.96 2.53 -17.06 6.20 -22.47 8.13 -5.38 1.96 -17 6.17 -25.80 9.34 -8.80 3.20 -20.60 7.47 -26.27 9.50 -5.67 2.03 -13.55 4.87 -17.57 6.33 -3.99 1.42 -9.69 3.48 -12.66 4.56 -2.94 1.04 -8.07 2.91 -11.39 4.11 l-6.01 2.22 -0.09 4.46 c-0.06 4.21 -0.03 4.49 0.47 4.27 0.32 -0.09 8.26 -2.98 17.66 -6.36z m-24.34 -2.56 c-0.16 -0.16 -4.40 -1.74 -22.19 -8.23 -6.96 -2.53 -13.17 -4.78 -13.77 -5.03 -1.55 -0.57 -30.32 -11.17 -36.71 -13.48 -2.88 -1.04 -8.29 -3.01 -12.03 -4.37 -3.73 -1.36 -9.15 -3.32 -12.03 -4.37 -2.88 -1.04 -6.39 -2.34 -7.85 -2.88 l-2.63 -0.98 0.09 4.37 0.09 4.34 1.11 0.51 c0.60 0.28 4.53 1.77 8.70 3.29 4.18 1.52 13.36 4.91 20.41 7.50 7.06 2.60 16.11 5.92 20.10 7.37 20.29 7.41 34.97 12.72 39.25 14.27 2.63 0.92 7.60 2.72 11.08 4.02 l6.33 2.31 0.09 -4.24 c0.03 -2.34 0.03 -4.34 -0.06 -4.40z m36.56 -17.47 c17.82 -6.43 35.77 -12.88 39.85 -14.37 22.09 -8.01 35.16 -12.76 45.26 -16.43 6.17 -2.25 11.87 -4.34 12.66 -4.59 0.79 -0.28 1.52 -0.57 1.65 -0.70 0.09 -0.09 -7.37 -3.01 -16.62 -6.43 -25.83 -9.59 -59.79 -22.19 -66.85 -24.78 -3.48 -1.27 -9.40 -3.45 -13.20 -4.84 l-6.84 -2.53 -4.24 1.52 c-50.74 18.45 -105.49 38.33 -115.43 41.94 -7.06 2.53 -12.95 4.72 -13.10 4.81 -0.25 0.16 2.37 1.17 17.50 6.71 20.60 7.56 40.20 14.72 45.58 16.68 3.58 1.33 8.77 3.23 11.55 4.24 4.65 1.71 14.59 5.35 24.53 8.96 2.18 0.79 4.24 1.46 4.62 1.49 0.35 0 15.22 -5.25 33.07 -11.68z"/>
 </g>
 <g fill="#ffffff">
  <path d="M0 136.73 l0 -136.73 197.50 0 197.50 0 0 136.73 0 136.73 -197.50 0 -197.50 0 0 -136.73z m188.23 104.13 c1.87 -0.70 27.50 -10 56.91 -20.70 52.79 -19.21 63.52 -23.10 74.70 -27.25 3.13 -1.17 5.95 -2.18 6.27 -2.28 0.51 -0.16 0.54 -1.71 0.54 -26.55 l0 -26.40 -1.01 -0.41 c-1.23 -0.51 -9.18 -3.42 -30.10 -11.05 -1.01 -0.35 -1.77 -0.70 -1.71 -0.76 0.06 -0.06 7.31 -2.72 16.08 -5.95 8.80 -3.20 16.46 -6.05 17 -6.33 l1.01 -0.54 0 -9.12 0 -9.15 -3.23 -1.30 c-3.29 -1.30 -25.61 -9.62 -51.37 -19.18 -50.04 -18.55 -59.44 -22 -59.95 -22 -0.32 0 -2.47 0.70 -4.81 1.55 -4.84 1.80 -54.22 19.75 -61.85 22.50 -2.79 1.01 -13.45 4.87 -23.74 8.64 -10.25 3.73 -26.43 9.62 -35.92 13.04 -9.50 3.45 -17.44 6.39 -17.63 6.58 -0.32 0.22 -0.41 2.47 -0.41 9.27 l0 8.96 0.85 0.47 c0.51 0.22 8.26 3.10 17.28 6.39 10.29 3.73 16.24 6.01 15.95 6.17 -0.44 0.25 -13.04 4.91 -25.23 9.34 -3.73 1.36 -6.99 2.60 -7.22 2.75 -0.28 0.25 -0.38 5.79 -0.32 26.59 l0.09 26.27 5.86 2.12 c5.92 2.15 35.13 12.85 51.43 18.83 31.65 11.65 52.48 19.31 54.12 19.94 1.04 0.38 2.15 0.73 2.44 0.76 0.32 0 2.09 -0.54 3.96 -1.23z"/>
  <path d="M186.17 154.42 l0.09 -5.70 6.01 -2.22 c3.32 -1.20 8.45 -3.07 11.39 -4.11 2.98 -1.08 8.67 -3.13 12.66 -4.56 4.02 -1.46 11.90 -4.30 17.57 -6.33 5.67 -2.03 17.47 -6.30 26.27 -9.50 8.80 -3.17 21.40 -7.72 28.01 -10.13 6.61 -2.41 17.09 -6.20 23.26 -8.45 6.17 -2.28 11.55 -4.21 11.96 -4.27 l0.70 -0.16 -0.06 5.60 -0.09 5.60 -2.06 0.79 c-1.93 0.73 -78.97 28.71 -93.05 33.80 -24.05 8.70 -42.51 15.35 -42.63 15.35 -0.06 0 -0.06 -2.56 -0.03 -5.73z"/>
  <path d="M174.55 157.11 c-3.99 -1.49 -9.40 -3.45 -12.03 -4.37 -4.27 -1.55 -19.21 -6.96 -39.25 -14.27 -3.99 -1.46 -13.04 -4.78 -20.10 -7.37 -7.06 -2.60 -16.24 -5.98 -20.41 -7.50 -4.18 -1.52 -8.10 -3.01 -8.70 -3.29 l-1.11 -0.51 -0.09 -5.63 c-0.03 -3.07 -0.03 -5.60 0.03 -5.60 0.09 0 1.68 0.57 3.58 1.30 1.90 0.73 5.79 2.15 8.67 3.20 2.88 1.04 8.29 3.01 12.03 4.37 3.73 1.36 9.15 3.32 12.03 4.37 6.39 2.31 35.16 12.91 36.71 13.48 0.60 0.25 6.80 2.50 13.77 5.03 17.76 6.49 22.03 8.07 22.19 8.23 0.06 0.06 0.09 2.63 0.06 5.67 l-0.09 5.57 -7.28 -2.66z"/>
  <path d="M178.16 142.93 c-3.04 -1.11 -8.55 -3.13 -12.19 -4.46 -6.61 -2.44 -11.08 -4.05 -23.23 -8.51 -16.33 -5.95 -41.62 -15.22 -44.63 -16.33 -7.18 -2.66 -18.90 -6.90 -20.03 -7.28 -0.70 -0.22 -1.11 -0.51 -0.95 -0.66 0.13 -0.13 4.97 -1.96 10.70 -4.05 5.76 -2.09 33.39 -12.12 61.40 -22.28 65.71 -23.90 63.27 -23.01 64.19 -23.01 0.41 0 3.86 1.14 7.69 2.56 3.80 1.39 9.78 3.61 13.26 4.87 11.71 4.34 48.30 17.88 66.31 24.59 9.84 3.67 18.26 6.80 18.77 6.96 0.47 0.19 0.85 0.41 0.85 0.54 0 0.13 -1.23 0.66 -2.75 1.20 -1.55 0.54 -7.85 2.85 -14.02 5.10 -48.46 17.69 -118.34 42.79 -119.10 42.79 -0.38 -0.03 -3.20 -0.95 -6.27 -2.03z"/>
 </g>
</svg>